PathFileType	4	(X/Y/Z)	./resultDataOpenSim/trcMotMarkerGrf/sub09/qtm-13-02.trc
DataRate	CameraRate	NumFrames	NumMarkers	Units	OrigDataRate	OrigDataStartFrame	OrigNumFrames
250.000000	250.000000	10	24	m	250.000000	262	523
Frame#	Time	L.Toe.Tip			R.Toe.Tip			L.Ankle.Lat			R.Ankle.Lat			L.Ankle.Med			R.Ankle.Med			L.Heel			R.Heel			L.Knee.Lat			R.Knee.Lat			L.Knee.Med			R.Knee.Med			L.Thigh.Upper			R.Thigh.Upper			L.ASIS			R.ASIS			V.Sacral			L.Acromium			R.Acromium			C7			L.Elbow			R.Elbow			L.Wrist.Lat			R.Wrist.Lat
		X1	Y1	Z1	X2	Y2	Z2	X3	Y3	Z3	X4	Y4	Z4	X5	Y5	Z5	X6	Y6	Z6	X7	Y7	Z7	X8	Y8	Z8	X9	Y9	Z9	X10	Y10	Z10	X11	Y11	Z11	X12	Y12	Z12	X13	Y13	Z13	X14	Y14	Z14	X15	Y15	Z15	X16	Y16	Z16	X17	Y17	Z17	X18	Y18	Z18	X19	Y19	Z19	X20	Y20	Z20	X21	Y21	Z21	X22	Y22	Z22	X23	Y23	Z23	X24	Y24	Z24

262	1.044	0.15853037	-0.0097954439	0.0021649347	0.47955738	0.15693987	0.098806109	0.014306858	0.026148949	-0.052456049	0.33381662	0.17675974	0.12053228	0.030446158	0.042922242	0.045865134	0.35934323	0.21257605	0.029448412	-0.061537176	-0.0061664255	-0.0070599705	0.26821812	0.15421745	0.065999283	0.13248762	0.42716877	-0.10669017	0.46384078	0.60020117	0.17106576	0.12009955	0.43303989	0.016824689	0.46645995	0.58968422	0.046050462	0.16825103	0.84649199	-0.16910575	0.15874035	0.87407041	0.20226294	0.25751249	0.93356017	-0.10745098	0.23110171	0.95755643	0.13247777	0.075740447	0.99583086	-0.0065967999	0.278992	1.386668	-0.15414692	0.19798937	1.4117119	0.16433959	0.17739519	1.450114	-0.010287405	0.13840063	1.0492005	-0.25440511	0.019104723	1.0990361	0.24488378	0.32790191	0.85736744	-0.24558346	0.11543321	0.85386887	0.31426416
263	1.048	0.15854774	-0.0098125263	0.0021693237	0.49867739	0.15701059	0.097856391	0.014275075	0.026389083	-0.052147178	0.35220847	0.17294763	0.11916504	0.030653555	0.043196708	0.046134175	0.37715104	0.20960085	0.028235216	-0.061529305	-0.0056880813	-0.00655655	0.28757016	0.14879138	0.064334341	0.1329833	0.42724298	-0.10677476	0.47052682	0.60073909	0.17059237	0.12131942	0.4332425	0.016479576	0.47310653	0.58992938	0.045677232	0.17306328	0.8459157	-0.16902147	0.16484938	0.87365545	0.20254572	0.26290621	0.93286061	-0.10757107	0.23691612	0.95708881	0.13245177	0.080786068	0.99527147	-0.0067849647	0.28453424	1.3861726	-0.15419197	0.2037619	1.4110469	0.1644313	0.1831004	1.4495711	-0.010178151	0.14427483	1.0482988	-0.25418881	0.024724353	1.0985425	0.2448555	0.3348811	0.85754565	-0.24511711	0.1203762	0.85316922	0.31448745
264	1.052	0.15855756	-0.0098272389	0.002157121	0.51766385	0.15710724	0.096951034	0.014287839	0.026644955	-0.051832817	0.37056783	0.16928724	0.11779935	0.030931721	0.043539868	0.046435778	0.39500522	0.20672059	0.026997622	-0.061528381	-0.0051632389	-0.005935984	0.30695937	0.14354571	0.062584587	0.13341662	0.42733969	-0.10687096	0.47705933	0.60105868	0.17014992	0.12240207	0.433432	0.016248019	0.47953811	0.58994472	0.045439818	0.17784416	0.84532466	-0.16876119	0.17105267	0.87321048	0.20287062	0.26834257	0.93212344	-0.10768106	0.24276391	0.95656306	0.13243032	0.085787781	0.99472328	-0.0069978086	0.29008803	1.3856273	-0.15422604	0.20953776	1.4103395	0.16451987	0.18880688	1.4489959	-0.010069774	0.15015688	1.0473655	-0.2539612	0.030390595	1.0980007	0.24482495	0.3418291	0.85767532	-0.24466543	0.1254175	0.85241876	0.3147056
265	1.056	0.15856439	-0.0098483184	0.0021296242	0.53651413	0.15725308	0.096101119	0.01434772	0.026911927	-0.05151074	0.38891844	0.16578611	0.11641652	0.031299882	0.043937345	0.046752614	0.41289682	0.20393672	0.02571203	-0.061529116	-0.0045962486	-0.0051792183	0.32637248	0.1384948	0.060761935	0.13389037	0.42747399	-0.10699466	0.48344439	0.60115628	0.16974264	0.12313249	0.43357142	0.016278666	0.48587243	0.58975399	0.045248818	0.18265862	0.8447364	-0.16842946	0.17738106	0.87274728	0.20324428	0.27380677	0.93135139	-0.10777739	0.24865398	0.95598546	0.13241485	0.090931105	0.99413518	-0.0070481349	0.29566249	1.3850352	-0.15424496	0.21532526	1.4095949	0.16461107	0.19452154	1.4483863	-0.0099647827	0.15604667	1.0464072	-0.25372796	0.036135017	1.0974084	0.24477414	0.34873808	0.85774788	-0.24423345	0.13049548	0.85161109	0.31491513
266	1.06	0.15857474	-0.0098766323	0.0020924087	0.55523129	0.1574819	0.095321358	0.01439528	0.027203985	-0.051139434	0.40725585	0.16242817	0.11497939	0.031747427	0.044363056	0.047075796	0.43080332	0.2012642	0.024377087	-0.061521009	-0.0039839309	-0.0042940975	0.34581516	0.13364093	0.058872156	0.13444982	0.42765363	-0.10715868	0.48970749	0.60104134	0.16937151	0.12348912	0.43367289	0.016574781	0.49229121	0.58940724	0.044933336	0.18759342	0.84416861	-0.16814844	0.18379387	0.87225961	0.2036458	0.27928096	0.93054958	-0.1078599	0.25458927	0.95535932	0.1324052	0.09632971	0.99344587	-0.0068689742	0.30125529	1.3844043	-0.15425278	0.22112568	1.4088235	0.16471207	0.20025129	1.4477408	-0.0098620943	0.16193921	1.0454255	-0.25348885	0.041956359	1.0967626	0.24470355	0.35560977	0.85775388	-0.24381337	0.13553209	0.85073942	0.3151031
267	1.064	0.15859459	-0.0099077096	0.0020506657	0.57381439	0.15781988	0.094626657	0.014364955	0.027542894	-0.050676842	0.42556136	0.15918454	0.1134427	0.032234433	0.044800395	0.047426308	0.44870038	0.19872061	0.023016487	-0.061496815	-0.0033205532	-0.0033120389	0.36530061	0.12897529	0.056894154	0.13505064	0.42787119	-0.10735573	0.49587691	0.60072456	0.16903256	0.12372096	0.43381554	0.016902839	0.49893673	0.58896329	0.044328438	0.19270186	0.84363232	-0.16802234	0.1901733	0.87172276	0.2040258	0.28476283	0.929724	-0.1079319	0.26057114	0.95467957	0.13239736	0.10207102	0.99264243	-0.0065888663	0.30686075	1.3837413	-0.15425324	0.22694026	1.4080302	0.16482138	0.20599828	1.4470544	-0.0097578207	0.16783053	1.0444214	-0.25324059	0.047817139	1.0960691	0.24463954	0.36245648	0.85769726	-0.24338675	0.14046074	0.84979744	0.31524089
268	1.068	0.15862602	-0.0099378946	0.002007702	0.59225359	0.1582678	0.09401787	0.014248898	0.027942274	-0.050123078	0.44383364	0.15603193	0.11179167	0.032723988	0.045249885	0.047832431	0.46657526	0.19632013	0.021653926	-0.061458601	-0.0026078401	-0.0022741037	0.38484032	0.12449394	0.054781132	0.13563423	0.42811174	-0.10757033	0.50194999	0.60020231	0.16872521	0.1241858	0.43408532	0.016965611	0.50575674	0.58843987	0.043449431	0.19792879	0.84311872	-0.16806333	0.19642664	0.87111545	0.20434672	0.29026052	0.92887668	-0.10799821	0.26660476	0.95393811	0.1323844	0.10828114	0.99176093	-0.0064287294	0.3124818	1.3830463	-0.15424116	0.2327742	1.407211	0.16492948	0.21175997	1.4463277	-0.0096491323	0.17372073	1.0433967	-0.25298247	0.053668078	1.0953393	0.24461679	0.36929564	0.85759774	-0.24293595	0.14521888	0.84877328	0.31528997
269	1.072	0.15866675	-0.0099670877	0.0019660915	0.61054076	0.15879811	0.093461137	0.014082524	0.028403679	-0.04950757	0.46207797	0.15297511	0.11008123	0.033204942	0.045717411	0.048288576	0.48442188	0.19407172	0.020292926	-0.061412435	-0.0018505505	-0.0012160624	0.40442903	0.12021287	0.052506605	0.13619976	0.42836814	-0.10779645	0.5078629	0.59944392	0.1684594	0.12505964	0.43448274	0.01668585	0.51249665	0.58777902	0.042549559	0.20310041	0.84260203	-0.16815473	0.20256035	0.87043544	0.20461049	0.29577363	0.92800564	-0.10806854	0.27269842	0.95313444	0.13235886	0.11496629	0.99084294	-0.0064818161	0.31812738	1.382311	-0.15420535	0.23862677	1.4063594	0.16502757	0.21753233	1.4455704	-0.0095360262	0.17961303	1.0423498	-0.25271857	0.059481274	1.0945799	0.24465025	0.37613654	0.85747073	-0.24245686	0.1497613	0.84765493	0.31522114
270	1.076	0.15871225	-0.0099984279	0.0019269458	0.62867488	0.159379	0.092907883	0.013903092	0.028916032	-0.048867834	0.48024257	0.15006832	0.10840809	0.03368143	0.046206133	0.048761575	0.50222847	0.19197889	0.018926307	-0.06136054	-0.0010454531	-0.00015982861	0.42401962	0.11616342	0.050110615	0.1367875	0.42864665	-0.10803238	0.51354715	0.59841497	0.16824274	0.12626663	0.43491901	0.016223013	0.51892381	0.58689736	0.041902108	0.2080572	0.84205965	-0.16815705	0.20863918	0.86969625	0.20484043	0.30128825	0.92710823	-0.10815731	0.27886145	0.95227657	0.13231537	0.12180857	0.98993536	-0.0066113912	0.32379855	1.3815296	-0.15414426	0.24448766	1.4054725	0.16511496	0.22331442	1.4447906	-0.0094183199	0.18551254	1.0412767	-0.25245327	0.065282784	1.0937862	0.24470928	0.38297145	0.85731406	-0.24196082	0.15414383	0.84645833	0.31505404
271	1.08	0.15875645	-0.010035217	0.0018901233	0.64664864	0.15998947	0.092340412	0.013734575	0.029466762	-0.048242453	0.49818501	0.14740453	0.10683442	0.034157303	0.046720201	0.049229504	0.51997065	0.19004505	0.017557068	-0.061302302	-0.00018565455	0.00088275319	0.44351202	0.11237725	0.047694169	0.13742778	0.42895803	-0.10826813	0.51904058	0.59712784	0.16806424	0.12764631	0.43529871	0.015781649	0.52501855	0.58576628	0.041565316	0.21279327	0.84148772	-0.16804322	0.21472316	0.86891339	0.20505547	0.30678963	0.92618192	-0.10827494	0.2850996	0.9513732	0.13225223	0.12836019	0.98909825	-0.0066219256	0.32948459	1.38071	-0.15407623	0.25034977	1.4045537	0.16519929	0.22911037	1.4439884	-0.0092937354	0.19142388	1.0401784	-0.2521867	0.071156433	1.0929474	0.24471253	0.38978677	0.85711982	-0.24146023	0.15856734	0.84524202	0.31487827
